<svg fill="none" height="20" viewBox="0 0 18 20" width="18" xmlns="http://www.w3.org/2000/svg"><mask height="20" maskUnits="userSpaceOnUse" width="18" x="0" y="0"><path clip-rule="evenodd" d="m18 14.0625c0 .293-.1406.5586-.3576.7266-.1687.6015-.1687 2.3164 0 2.9179.217.1719.3576.4375.3576.7305v.625c0 .5195-.4299.9375-.9643.9375h-13.17856c-2.12946 0-3.85714-1.6797-3.85714-3.75v-12.5c0-2.07031 1.72768-3.75 3.85714-3.75h13.17856c.5344 0 .9643.417969.9643.9375zm-12.61607-9.0625c-.13259 0-.24107.10547-.24107.23438v.78124c0 .12891.10848.23438.24107.23438h8.51787c.1326 0 .2411-.10547.2411-.23438v-.78124c0-.12891-.1085-.23438-.2411-.23438zm-.24107 2.73438c0-.12891.10848-.23438.24107-.23438h8.51787c.1326 0 .2411.10547.2411.23438v.78124c0 .12891-.1085.23438-.2411.23438h-8.51787c-.13259 0-.24107-.10547-.24107-.23438zm-1.28572 9.76562h11.46696c-.0763-.668-.0763-1.832 0-2.5h-11.46696c-.70714 0-1.28571.5625-1.28571 1.25 0 .6914.57455 1.25 1.28571 1.25z" fill="#fff" fill-rule="evenodd"/></mask><path clip-rule="evenodd" d="m18 14.0625c0 .293-.1406.5586-.3576.7266-.1687.6015-.1687 2.3164 0 2.9179.217.1719.3576.4375.3576.7305v.625c0 .5195-.4299.9375-.9643.9375h-13.17856c-2.12946 0-3.85714-1.6797-3.85714-3.75v-12.5c0-2.07031 1.72768-3.75 3.85714-3.75h13.17856c.5344 0 .9643.417969.9643.9375zm-12.61607-9.0625c-.13259 0-.24107.10547-.24107.23438v.78124c0 .12891.10848.23438.24107.23438h8.51787c.1326 0 .2411-.10547.2411-.23438v-.78124c0-.12891-.1085-.23438-.2411-.23438zm-.24107 2.73438c0-.12891.10848-.23438.24107-.23438h8.51787c.1326 0 .2411.10547.2411.23438v.78124c0 .12891-.1085.23438-.2411.23438h-8.51787c-.13259 0-.24107-.10547-.24107-.23438zm-1.28572 9.76562h11.46696c-.0763-.668-.0763-1.832 0-2.5h-11.46696c-.70714 0-1.28571.5625-1.28571 1.25 0 .6914.57455 1.25 1.28571 1.25z" fill="#0b86c4" fill-rule="evenodd"/></svg>