<svg fill="none" height="20" viewBox="0 0 20 20" width="20" xmlns="http://www.w3.org/2000/svg"><mask height="20" maskUnits="userSpaceOnUse" width="20" x="0" y="0"><path clip-rule="evenodd" d="m19.0392 12.332-1.6647-.9609c.1673-.9064.1673-1.83575 0-2.74217l1.6648-.9609c.1901-.10976.2783-.33668.2132-.54629-.4324-1.39226-1.1707-2.65008-2.1363-3.69476-.1488-.16112-.3894-.19767-.5793-.08805l-1.6635.96074c-.6999-.59968-1.5045-1.06491-2.3734-1.37226v-1.92125c0-.219808-.1528-.409769-.3673-.457933-1.4344-.322226-2.90089-.306367-4.26636.000274-.21413.048116-.36629.238261-.36629.457739v1.92121c-.86888.30736-1.67351.77259-2.37339 1.37226l-1.66344-.96074c-.18998-.10963-.43054-.07307-.57938.08805-.96558 1.04468-1.70386 2.3025-2.136286 3.69476-.065117.20965.023125.43656.213242.54629l1.664684.9609c-.1672.9064-.1672 1.83573 0 2.74213l-1.664723.9609c-.190117.1098-.278359.3367-.213242.5463.432425 1.3923 1.170745 2.6501 2.136285 3.6948.14884.1611.3894.1976.57938.088l1.66344-.9607c.69987.5997 1.5045 1.0649 2.3734 1.3722v1.9213c0 .2198.15285.4098.3673.4579 1.43437.3222 2.90088.3064 4.26638-.0003.2141-.0481.3663-.2382.3663-.4577v-1.9212c.8689-.3073 1.6735-.7726 2.3734-1.3722l1.6634.9607c.19.1096.4306.0731.5794-.088.9656-1.0447 1.7039-2.3025 2.1363-3.6948.0651-.2096-.0231-.4366-.2133-.5463zm-9.0392-5.45698c1.7231 0 3.125 1.40188 3.125 3.12498s-1.4019 3.125-3.125 3.125c-1.72311 0-3.12498-1.4019-3.12498-3.125s1.40187-3.12498 3.12498-3.12498z" fill="#fff" fill-rule="evenodd"/></mask><path clip-rule="evenodd" d="m19.0392 12.332-1.6647-.9609c.1673-.9064.1673-1.83575 0-2.74217l1.6648-.9609c.1901-.10976.2783-.33668.2132-.54629-.4324-1.39226-1.1707-2.65008-2.1363-3.69476-.1488-.16112-.3894-.19767-.5793-.08805l-1.6635.96074c-.6999-.59968-1.5045-1.06491-2.3734-1.37226v-1.92125c0-.219808-.1528-.409769-.3673-.457933-1.4344-.322226-2.90089-.306367-4.26636.000274-.21413.048116-.36629.238261-.36629.457739v1.92121c-.86888.30736-1.67351.77259-2.37339 1.37226l-1.66344-.96074c-.18998-.10963-.43054-.07307-.57938.08805-.96558 1.04468-1.70386 2.3025-2.136286 3.69476-.065117.20965.023125.43656.213242.54629l1.664684.9609c-.1672.9064-.1672 1.83573 0 2.74213l-1.664723.9609c-.190117.1098-.278359.3367-.213242.5463.432425 1.3923 1.170745 2.6501 2.136285 3.6948.14884.1611.3894.1976.57938.088l1.66344-.9607c.69987.5997 1.5045 1.0649 2.3734 1.3722v1.9213c0 .2198.15285.4098.3673.4579 1.43437.3222 2.90088.3064 4.26638-.0003.2141-.0481.3663-.2382.3663-.4577v-1.9212c.8689-.3073 1.6735-.7726 2.3734-1.3722l1.6634.9607c.19.1096.4306.0731.5794-.088.9656-1.0447 1.7039-2.3025 2.1363-3.6948.0651-.2096-.0231-.4366-.2133-.5463zm-9.0392-5.45698c1.7231 0 3.125 1.40188 3.125 3.12498s-1.4019 3.125-3.125 3.125c-1.72311 0-3.12498-1.4019-3.12498-3.125s1.40187-3.12498 3.12498-3.12498z" fill="#0b86c4" fill-rule="evenodd"/></svg>