<svg height="20" viewBox="0 0 20 20" width="20" xmlns="http://www.w3.org/2000/svg"><path d="m20.0000173 9.98108871c.0101843 5.50967739-4.4830818 10.01499999-9.9927592 10.01887359-2.37963713.0016909-4.56544358-.8278252-6.2831452-2.2141558-.44665322-.3604839-.48004032-1.0298791-.07415322-1.4357662l.45431451-.4543145c.3471371-.3471371.90133065-.385121 1.28592742-.08 1.2655242 1.0042339 2.86709678 1.603629 4.60979839 1.603629 4.1010081 0 7.4193548-3.3189919 7.4193548-7.4193548 0-4.10100806-3.3189919-7.41935484-7.4193548-7.41935484-1.96830645 0-3.75600806.76487903-5.0833871 2.0133871l2.04653226 2.04653226c.40645161.40645161.11858871 1.10137096-.45616935 1.10137096h-5.86181452c-.35633064 0-.64516129-.28883064-.64516129-.64516129v-5.86181451c0-.57475807.69491936-.86262097 1.10137097-.45620968l1.99080645 1.99080645c1.79528226-1.71568548 4.22846774-2.76955645 6.90782258-2.76955645 5.5165323 0 9.9897984 4.46693548 10.0000173 9.98108871zm-7.294856 3.17677419.3960887-.5092742c.3281452-.4218952.2521371-1.0299193-.1697581-1.3580242l-1.6411693-1.2764919v-4.20762099c0-.5344758-.4332661-.96774193-.967742-.96774193h-.64516125c-.5344758 0-.96774193.43326613-.96774193.96774193v5.46979839l2.63745968 2.051371c.4218952.3281048 1.029879.2521371 1.3580242-.1697581z" fill="#0b86c4"/></svg>