<svg height="32" viewBox="0 0 32 32" width="32" xmlns="http://www.w3.org/2000/svg"><g fill="none" fill-rule="evenodd"><circle cx="16" cy="16" fill="#0b86c4" r="16"/><path d="m26 16.398559-3.4977498-3.5772741-3.5066498 3.5772741h2.4297345v.0817143c.010706 2.4769276-1.6976361 4.615583-4.0778214 5.1049818-2.3801853.4893987-4.7672456-.8071858-5.6979255-3.0949541s-.1449691-4.9275713 1.8754958-6.3012235c2.0204649-1.3736523 4.7112131-1.0973875 6.4228301.6594456l1.6109229-1.643367c-2.4768799-2.53482843-6.3644026-2.93092604-9.2838016-.9459216-2.91939899 1.9850044-4.05698836 5.7978566-2.71667968 9.1054807 1.34030868 3.307624 4.78494868 5.1881292 8.22615248 4.4908385 3.4412037-.6972907 5.9198494-3.7780305 5.9192593-7.3571216 0 0 0-.0544763 0-.0817144z" fill="#fcfcfc" fill-rule="nonzero"/></g></svg>