<svg fill="none" height="20" viewBox="0 0 18 20" width="18" xmlns="http://www.w3.org/2000/svg"><mask height="20" maskUnits="userSpaceOnUse" width="18" x="0" y="0"><path clip-rule="evenodd" d="m18 18.125c0 1.0352-.8638 1.875-1.9286 1.875h-14.14283c-1.064731 0-1.92857-.8398-1.92857-1.875v-13.75c0-1.03516.863839-1.875 1.92857-1.875h1.92857v-2.03125c0-.257812.21697-.46875.48215-.46875h1.60714c.26518 0 .48214.210938.48214.46875v2.03125h5.14283v-2.03125c0-.257812.217-.46875.4822-.46875h1.6071c.2652 0 .4822.210938.4822.46875v2.03125h1.9285c1.0648 0 1.9286.83984 1.9286 1.875zm-13.66071-6.875h1.60714c.26518 0 .48214-.2109.48214-.4688v-1.56245c0-.25781-.21696-.46875-.48214-.46875h-1.60714c-.26518 0-.48215.21094-.48215.46875v1.56245c0 .2579.21697.4688.48215.4688zm5.94641-2.03125v1.56245c0 .2579-.2169.4688-.48213.4688h-1.60714c-.26518 0-.48214-.2109-.48214-.4688v-1.56245c0-.25781.21696-.46875.48214-.46875h1.60714c.26523 0 .48213.21094.48213.46875zm3.8572 1.56245v-1.56245c0-.25781-.217-.46875-.4822-.46875h-1.6071c-.2652 0-.4822.21094-.4822.46875v1.56245c0 .2579.217.4688.4822.4688h1.6071c.2652 0 .4822-.2109.4822-.4688zm-3.8572 2.1876v1.5624c0 .2579-.2169.4688-.48213.4688h-1.60714c-.26518 0-.48214-.2109-.48214-.4688v-1.5624c0-.2579.21696-.4688.48214-.4688h1.60714c.26523 0 .48213.2109.48213.4688zm-3.85713 1.5624v-1.5624c0-.2579-.21696-.4688-.48214-.4688h-1.60714c-.26518 0-.48215.2109-.48215.4688v1.5624c0 .2579.21697.4688.48215.4688h1.60714c.26518 0 .48214-.2109.48214-.4688zm7.71433-1.5624v1.5624c0 .2579-.217.4688-.4822.4688h-1.6071c-.2652 0-.4822-.2109-.4822-.4688v-1.5624c0-.2579.217-.4688.4822-.4688h1.6071c.2652 0 .4822.2109.4822.4688zm1.9285-6.7188v11.6406c0 .1289-.1085.2344-.241.2344h-13.66076c-.13259 0-.24107-.1055-.24107-.2344v-11.6406z" fill="#fff" fill-rule="evenodd"/></mask><path clip-rule="evenodd" d="m18 18.125c0 1.0352-.8638 1.875-1.9286 1.875h-14.14283c-1.064731 0-1.92857-.8398-1.92857-1.875v-13.75c0-1.03516.863839-1.875 1.92857-1.875h1.92857v-2.03125c0-.257812.21697-.46875.48215-.46875h1.60714c.26518 0 .48214.210938.48214.46875v2.03125h5.14283v-2.03125c0-.257812.217-.46875.4822-.46875h1.6071c.2652 0 .4822.210938.4822.46875v2.03125h1.9285c1.0648 0 1.9286.83984 1.9286 1.875zm-13.66071-6.875h1.60714c.26518 0 .48214-.2109.48214-.4688v-1.56245c0-.25781-.21696-.46875-.48214-.46875h-1.60714c-.26518 0-.48215.21094-.48215.46875v1.56245c0 .2579.21697.4688.48215.4688zm5.94641-2.03125v1.56245c0 .2579-.2169.4688-.48213.4688h-1.60714c-.26518 0-.48214-.2109-.48214-.4688v-1.56245c0-.25781.21696-.46875.48214-.46875h1.60714c.26523 0 .48213.21094.48213.46875zm3.8572 1.56245v-1.56245c0-.25781-.217-.46875-.4822-.46875h-1.6071c-.2652 0-.4822.21094-.4822.46875v1.56245c0 .2579.217.4688.4822.4688h1.6071c.2652 0 .4822-.2109.4822-.4688zm-3.8572 2.1876v1.5624c0 .2579-.2169.4688-.48213.4688h-1.60714c-.26518 0-.48214-.2109-.48214-.4688v-1.5624c0-.2579.21696-.4688.48214-.4688h1.60714c.26523 0 .48213.2109.48213.4688zm-3.85713 1.5624v-1.5624c0-.2579-.21696-.4688-.48214-.4688h-1.60714c-.26518 0-.48215.2109-.48215.4688v1.5624c0 .2579.21697.4688.48215.4688h1.60714c.26518 0 .48214-.2109.48214-.4688zm7.71433-1.5624v1.5624c0 .2579-.217.4688-.4822.4688h-1.6071c-.2652 0-.4822-.2109-.4822-.4688v-1.5624c0-.2579.217-.4688.4822-.4688h1.6071c.2652 0 .4822.2109.4822.4688zm1.9285-6.7188v11.6406c0 .1289-.1085.2344-.241.2344h-13.66076c-.13259 0-.24107-.1055-.24107-.2344v-11.6406z" fill="#0b86c4" fill-rule="evenodd"/></svg>