<svg fill="none" height="16" viewBox="0 0 20 16" width="20" xmlns="http://www.w3.org/2000/svg"><mask height="16" maskUnits="userSpaceOnUse" width="20" x="0" y="0"><path clip-rule="evenodd" d="m19.5312 13c.2579 0 .4688.2109.4688.4688v1.5624c0 .2579-.2109.4688-.4688.4688h-19.06245c-.257812 0-.46875-.2109-.46875-.4688v-14.06245c0-.257812.210938-.46875.46875-.46875h1.5625c.25781 0 .46875.210938.46875.46875v12.03125zm-12.0312-1.7188v-2.81245c0-.25781-.21094-.46875-.46875-.46875h-1.5625c-.25781 0-.46875.21094-.46875.46875v2.81245c0 .2579.21094.4688.46875.4688h1.5625c.25781 0 .46875-.2109.46875-.4688zm7.5-5.31245v5.31245c0 .2579-.2109.4688-.4688.4688h-1.5624c-.2579 0-.4688-.2109-.4688-.4688v-5.31245c0-.25781.2109-.46875.4688-.46875h1.5624c.2579 0 .4688.21094.4688.46875zm-3.75 5.31245v-7.81245c0-.25781-.2109-.46875-.4688-.46875h-1.56245c-.25781 0-.46875.21094-.46875.46875v7.81245c0 .2579.21094.4688.46875.4688h1.56245c.2579 0 .4688-.2109.4688-.4688zm7.5-9.06245v9.06245c0 .2579-.2109.4688-.4688.4688h-1.5624c-.2579 0-.4688-.2109-.4688-.4688v-9.06245c0-.25781.2109-.46875.4688-.46875h1.5624c.2579 0 .4688.21094.4688.46875z" fill="#fff" fill-rule="evenodd"/></mask><path clip-rule="evenodd" d="m19.5312 13c.2579 0 .4688.2109.4688.4688v1.5624c0 .2579-.2109.4688-.4688.4688h-19.06245c-.257812 0-.46875-.2109-.46875-.4688v-14.06245c0-.257812.210938-.46875.46875-.46875h1.5625c.25781 0 .46875.210938.46875.46875v12.03125zm-12.0312-1.7188v-2.81245c0-.25781-.21094-.46875-.46875-.46875h-1.5625c-.25781 0-.46875.21094-.46875.46875v2.81245c0 .2579.21094.4688.46875.4688h1.5625c.25781 0 .46875-.2109.46875-.4688zm7.5-5.31245v5.31245c0 .2579-.2109.4688-.4688.4688h-1.5624c-.2579 0-.4688-.2109-.4688-.4688v-5.31245c0-.25781.2109-.46875.4688-.46875h1.5624c.2579 0 .4688.21094.4688.46875zm-3.75 5.31245v-7.81245c0-.25781-.2109-.46875-.4688-.46875h-1.56245c-.25781 0-.46875.21094-.46875.46875v7.81245c0 .2579.21094.4688.46875.4688h1.56245c.2579 0 .4688-.2109.4688-.4688zm7.5-9.06245v9.06245c0 .2579-.2109.4688-.4688.4688h-1.5624c-.2579 0-.4688-.2109-.4688-.4688v-9.06245c0-.25781.2109-.46875.4688-.46875h1.5624c.2579 0 .4688.21094.4688.46875z" fill="#0b86c4" fill-rule="evenodd"/></svg>