<svg fill="none" height="18" viewBox="0 0 20 18" width="20" xmlns="http://www.w3.org/2000/svg"><mask height="18" maskUnits="userSpaceOnUse" width="20" x="0" y="0"><path clip-rule="evenodd" d="m18.125.25h-16.25c-1.035547 0-1.875.83945-1.875 1.875v13.75c0 1.0355.839453 1.875 1.875 1.875h16.25c1.0355 0 1.875-.8395 1.875-1.875v-13.75c0-1.03555-.8395-1.875-1.875-1.875zm-9.375 15h-6.25v-10h6.25zm2.5 0h6.25v-10h-6.25z" fill="#fff" fill-rule="evenodd"/></mask><path clip-rule="evenodd" d="m18.125.25h-16.25c-1.035547 0-1.875.83945-1.875 1.875v13.75c0 1.0355.839453 1.875 1.875 1.875h16.25c1.0355 0 1.875-.8395 1.875-1.875v-13.75c0-1.03555-.8395-1.875-1.875-1.875zm-9.375 15h-6.25v-10h6.25zm2.5 0h6.25v-10h-6.25z" fill="#0b86c4" fill-rule="evenodd"/></svg>