<svg fill="none" height="18" viewBox="0 0 20 18" width="20" xmlns="http://www.w3.org/2000/svg"><mask height="18" maskUnits="userSpaceOnUse" width="20" x="0" y="0"><path clip-rule="evenodd" d="m16.5425 6.5h2.52c.5178 0 .9375.41973.9375.9375v3.125c0 .5178-.4197.9375-.9375.9375h-.3125v4.375c0 1.0355-.8395 1.875-1.875 1.875h-13.75c-1.03555 0-1.875-.8395-1.875-1.875v-4.375h-.3125c-.517773 0-.9375-.4197-.9375-.9375v-3.125c0-.51777.419727-.9375.9375-.9375h2.52c-.595-.66395-.9575-1.54039-.9575-2.5 0-2.06777 1.68223-3.75 3.75-3.75 1.54738 0 2.60434.710625 3.7503 2.11523 1.0645-1.30691 2.1092-2.11523 3.7497-2.11523 2.0678 0 3.75 1.68223 3.75 3.75 0 .95961-.3625 1.83605-.9575 2.5zm-2.7925-3.75c-.6514 0-1.875.3125-2.8125 2.5h2.8125c.6893 0 1.25-.56074 1.25-1.25s-.5607-1.25-1.25-1.25zm-7.5 0c.65141 0 1.875.3125 2.8125 2.5h-2.8125c-.68926 0-1.25-.56074-1.25-1.25s.56074-1.25 1.25-1.25zm5.625 5h-3.75v7.1875c0 .5178.41973.9375.9375.9375h1.875c.5178 0 .9375-.4197.9375-.9375z" fill="#fff" fill-rule="evenodd"/></mask><path clip-rule="evenodd" d="m16.5425 6.5h2.52c.5178 0 .9375.41973.9375.9375v3.125c0 .5178-.4197.9375-.9375.9375h-.3125v4.375c0 1.0355-.8395 1.875-1.875 1.875h-13.75c-1.03555 0-1.875-.8395-1.875-1.875v-4.375h-.3125c-.517773 0-.9375-.4197-.9375-.9375v-3.125c0-.51777.419727-.9375.9375-.9375h2.52c-.595-.66395-.9575-1.54039-.9575-2.5 0-2.06777 1.68223-3.75 3.75-3.75 1.54738 0 2.60434.710625 3.7503 2.11523 1.0645-1.30691 2.1092-2.11523 3.7497-2.11523 2.0678 0 3.75 1.68223 3.75 3.75 0 .95961-.3625 1.83605-.9575 2.5zm-2.7925-3.75c-.6514 0-1.875.3125-2.8125 2.5h2.8125c.6893 0 1.25-.56074 1.25-1.25s-.5607-1.25-1.25-1.25zm-7.5 0c.65141 0 1.875.3125 2.8125 2.5h-2.8125c-.68926 0-1.25-.56074-1.25-1.25s.56074-1.25 1.25-1.25zm5.625 5h-3.75v7.1875c0 .5178.41973.9375.9375.9375h1.875c.5178 0 .9375-.4197.9375-.9375z" fill="#0b86c4" fill-rule="evenodd"/></svg>