<svg fill="none" height="12" viewBox="0 0 20 12" width="20" xmlns="http://www.w3.org/2000/svg"><mask height="12" maskUnits="userSpaceOnUse" width="20" x="0" y="0"><path clip-rule="evenodd" d="m13.2812 3.28125c0-1.81219-1.469-3.28125-3.2812-3.28125-1.81219 0-3.28125 1.46906-3.28125 3.28125s1.46906 3.28125 3.28125 3.28125c1.8122 0 3.2812-1.46906 3.2812-3.28125zm-.9849 3.19906 1.2494.31238c1.0016.2504 1.7043 1.15034 1.7043 2.18281v1.8995c0 .6213-.5037 1.125-1.125 1.125h-8.25c-.62131 0-1.125-.5037-1.125-1.125v-1.8995c0-1.03247.70266-1.93241 1.70431-2.18281l1.24944-.31238c1.19359.85853 3.05605 1.10516 4.59255 0zm4.2037.89469c1.2081 0 2.1875-.97937 2.1875-2.1875s-.9794-2.1875-2.1875-2.1875-2.1875.97937-2.1875 2.1875.9794 2.1875 2.1875 2.1875zm-10.8125-2.1875c0 1.20813-.97937 2.1875-2.1875 2.1875s-2.1875-.97937-2.1875-2.1875.97937-2.1875 2.1875-2.1875 2.1875.97937 2.1875 2.1875zm-1.4375 5.6875v-1.8995c0-.51722.14353-1.00638.39697-1.42497-.93713.46-1.97925.27213-2.67781-.23031l-.83297.20825c-.667752.1669-1.13619.7669-1.13619 1.45519v1.26634c0 .4142.335781.75.75.75h3.50528c-.00335-.0416-.00511-.0833-.00528-.125zm13.7808-3.55481.833.20825c.6678.16693 1.1362.76693 1.1362 1.45522v1.26634c0 .4142-.3358.75-.75.75h-3.5053c.0032-.0413.0053-.0829.0053-.125v-1.8995c0-.51922-.1447-1.01009-.4-1.42975.778.37547 1.8082.40213 2.6808-.22556z" fill="#fff" fill-rule="evenodd"/></mask><path clip-rule="evenodd" d="m13.2812 3.28125c0-1.81219-1.469-3.28125-3.2812-3.28125-1.81219 0-3.28125 1.46906-3.28125 3.28125s1.46906 3.28125 3.28125 3.28125c1.8122 0 3.2812-1.46906 3.2812-3.28125zm-.9849 3.19906 1.2494.31238c1.0016.2504 1.7043 1.15034 1.7043 2.18281v1.8995c0 .6213-.5037 1.125-1.125 1.125h-8.25c-.62131 0-1.125-.5037-1.125-1.125v-1.8995c0-1.03247.70266-1.93241 1.70431-2.18281l1.24944-.31238c1.19359.85853 3.05605 1.10516 4.59255 0zm4.2037.89469c1.2081 0 2.1875-.97937 2.1875-2.1875s-.9794-2.1875-2.1875-2.1875-2.1875.97937-2.1875 2.1875.9794 2.1875 2.1875 2.1875zm-10.8125-2.1875c0 1.20813-.97937 2.1875-2.1875 2.1875s-2.1875-.97937-2.1875-2.1875.97937-2.1875 2.1875-2.1875 2.1875.97937 2.1875 2.1875zm-1.4375 5.6875v-1.8995c0-.51722.14353-1.00638.39697-1.42497-.93713.46-1.97925.27213-2.67781-.23031l-.83297.20825c-.667752.1669-1.13619.7669-1.13619 1.45519v1.26634c0 .4142.335781.75.75.75h3.50528c-.00335-.0416-.00511-.0833-.00528-.125zm13.7808-3.55481.833.20825c.6678.16693 1.1362.76693 1.1362 1.45522v1.26634c0 .4142-.3358.75-.75.75h-3.5053c.0032-.0413.0053-.0829.0053-.125v-1.8995c0-.51922-.1447-1.01009-.4-1.42975.778.37547 1.8082.40213 2.6808-.22556z" fill="#0b86c4" fill-rule="evenodd"/></svg>