<svg height="16" viewBox="0 0 16 16" width="16" xmlns="http://www.w3.org/2000/svg"><path d="m15.7006037 14.2592-3.4311571-3.4312c.8327896-1.1288 1.3303834-2.5184 1.3303834-4.028 0-3.7552-3.0447619-6.8-6.799915-6.8-3.75515306 0-6.799915 3.0448-6.799915 6.8s3.04476194 6.8 6.799915 6.8c1.50958113 0 2.89916376-.4976 4.0271497-1.3304l3.4311571 3.4312c.1999975.1992.4607942.2992.721591.2992.2607967 0 .5223934-.1.7207909-.2992.3991951-.3976.3991951-1.044 0-1.4416zm-13.7006287-7.4592c0-2.6464 2.15357308-4.8 4.79994-4.8s4.79994 2.1536 4.79994 4.8-2.15357308 4.8-4.79994 4.8-4.79994-2.1536-4.79994-4.8z" fill="#cecece" opacity=".7"/></svg>